<?xml version="1.0" standalone="no"?>
<!DOCTYPE svg PUBLIC "-//W3C//DTD SVG 20010904//EN"
 "http://www.w3.org/TR/2001/REC-SVG-20010904/DTD/svg10.dtd">
<svg version="1.0" xmlns="http://www.w3.org/2000/svg"
 width="760.000000pt" height="760.000000pt" viewBox="0 0 760.000000 760.000000"
 preserveAspectRatio="xMidYMid meet">
<metadata>
Created by potrace 1.14, written by Peter Selinger 2001-2017
</metadata>
<g transform="translate(0.000000,760.000000) scale(0.100000,-0.100000)"
fill="#000000" stroke="none">
<path d="M2880 7593 c-23 -10 -37 -22 -179 -163 -90 -89 -143 -150 -156 -178
-25 -58 -24 -143 4 -202 16 -35 360 -384 1456 -1480 835 -835 1452 -1445 1477
-1459 l43 -25 610 1 c336 0 622 2 637 5 14 2 38 12 52 21 14 9 28 17 30 17 15
0 261 261 279 295 29 57 29 155 0 215 -16 33 -177 200 -571 593 -301 302 -554
552 -562 557 -8 6 -12 10 -9 10 7 0 -291 298 -311 311 -8 5 -13 9 -9 9 13 0
-1444 1447 -1473 1463 -30 16 -81 17 -668 16 -349 0 -642 -3 -650 -6z"/>
<path d="M1895 5926 c-22 -6 -53 -20 -70 -31 -39 -26 -1245 -1232 -1245 -1245
0 -5 -4 -10 -9 -10 -14 0 -41 -89 -41 -137 0 -89 27 -131 183 -287 151 -150
157 -160 174 -261 15 -85 5 -186 -28 -286 -21 -63 -26 -71 -66 -90 -52 -25
-304 -275 -328 -324 -26 -57 -30 -125 -9 -191 17 -56 32 -72 639 -679 403
-402 635 -627 660 -640 29 -14 62 -19 122 -20 46 0 83 -3 83 -6 0 -4 17 -3 38
1 20 3 53 5 72 3 19 -2 42 -4 50 -4 8 1 84 2 167 3 84 2 153 0 153 -3 0 -4 17
-3 38 1 20 3 53 5 72 3 19 -2 40 -4 45 -4 6 0 106 1 222 2 198 1 216 3 262 24
59 28 290 255 322 317 12 24 22 65 24 99 6 113 18 98 -664 781 -502 502 -627
622 -667 640 -48 21 -56 22 -526 22 -305 1 -480 5 -485 11 -19 22 -41 116 -45
190 -2 44 14 150 29 195 l18 54 535 1 535 1 45 23 c31 16 241 219 657 635 668
667 657 653 656 766 0 87 -28 131 -172 275 -114 114 -172 159 -221 174 -34 11
-1186 7 -1225 -3z"/>
<path d="M5576 3603 c-1 -1 -13 -4 -26 -6 -14 -3 -38 -11 -55 -18 -33 -14
-3015 -2987 -3015 -3006 0 -6 -5 -13 -11 -15 -5 -2 -11 -10 -13 -18 -2 -8 -6
-23 -11 -33 -20 -47 -6 -153 28 -202 33 -47 248 -260 287 -284 35 -21 41 -21
678 -21 564 0 648 2 677 16 27 12 2768 2740 2965 2950 60 65 73 96 75 184 2
80 -26 124 -163 263 -131 133 -176 169 -227 181 -25 6 -1183 15 -1189 9z"/>
</g>
</svg>
