<svg width="32" height="32" viewBox="0 0 32 32" fill="none" xmlns="http://www.w3.org/2000/svg">
<circle cx="16" cy="16" r="16" fill="#3A3737" fill-opacity="0.3"/>
<g clip-path="url(#clip0_1048_7912)">
<path d="M13.8509 8.76419C13.9368 8.96775 13.9383 9.1971 13.8552 9.40181C13.7721 9.60653 13.611 9.76984 13.4075 9.85586C12.1994 10.3659 11.1684 11.2207 10.4435 12.3135C9.71862 13.4064 9.332 14.6886 9.332 16C9.332 17.3114 9.71862 18.5937 10.4435 19.6865C11.1684 20.7793 12.1994 21.6342 13.4075 22.1442C13.5106 22.1852 13.6044 22.2464 13.6835 22.3241C13.7626 22.4018 13.8254 22.4946 13.8682 22.5969C13.911 22.6992 13.9329 22.809 13.9328 22.9199C13.9326 23.0308 13.9102 23.1406 13.8671 23.2427C13.8239 23.3449 13.7608 23.4374 13.6815 23.5149C13.6021 23.5923 13.5081 23.6532 13.4049 23.6938C13.3017 23.7345 13.1914 23.7541 13.0806 23.7516C12.9697 23.7491 12.8604 23.7245 12.7592 23.6792C11.2495 23.0415 9.96121 21.973 9.05546 20.6072C8.14971 19.2414 7.66665 17.6389 7.66669 16C7.66669 12.5459 9.76835 9.58336 12.7584 8.32086C12.8592 8.27818 12.9675 8.2558 13.0769 8.25499C13.1864 8.25418 13.295 8.27495 13.3965 8.31612C13.4979 8.35729 13.5903 8.41806 13.6683 8.49494C13.7462 8.57182 13.8083 8.66332 13.8509 8.76419ZM19.2409 8.32086C20.7506 8.95842 22.039 10.0269 22.9447 11.3928C23.8505 12.7586 24.3335 14.3611 24.3334 16C24.3334 19.4542 22.2317 22.4159 19.2417 23.6792C19.0381 23.7654 18.8087 23.7672 18.6038 23.6842C18.3989 23.6012 18.2354 23.4402 18.1492 23.2367C18.063 23.0331 18.0612 22.8037 18.1442 22.5988C18.2272 22.3939 18.3881 22.2304 18.5917 22.1442C19.7998 21.6342 20.8308 20.7793 21.5557 19.6865C22.2806 18.5937 22.6672 17.3114 22.6672 16C22.6672 14.6886 22.2806 13.4064 21.5557 12.3135C20.8308 11.2207 19.7998 10.3659 18.5917 9.85586C18.3881 9.76966 18.2272 9.60614 18.1442 9.40125C18.0612 9.19637 18.063 8.96691 18.1492 8.76336C18.2354 8.5598 18.3989 8.39883 18.6038 8.31584C18.8087 8.23286 19.0381 8.23466 19.2417 8.32086H19.2409ZM16 11C16.221 11 16.433 11.0878 16.5893 11.2441C16.7456 11.4004 16.8334 11.6123 16.8334 11.8334V12.6667H18.5C18.721 12.6667 18.933 12.7545 19.0893 12.9108C19.2456 13.067 19.3334 13.279 19.3334 13.5C19.3334 13.721 19.2456 13.933 19.0893 14.0893C18.933 14.2456 18.721 14.3334 18.5 14.3334H16.8334V15.1667H17.6667C18.2192 15.1667 18.7491 15.3862 19.1398 15.7769C19.5305 16.1676 19.75 16.6975 19.75 17.25C19.75 17.8026 19.5305 18.3325 19.1398 18.7232C18.7491 19.1139 18.2192 19.3334 17.6667 19.3334H16.8334V20.1667C16.8334 20.3877 16.7456 20.5997 16.5893 20.7559C16.433 20.9122 16.221 21 16 21C15.779 21 15.567 20.9122 15.4108 20.7559C15.2545 20.5997 15.1667 20.3877 15.1667 20.1667V19.3334H13.5C13.279 19.3334 13.067 19.2456 12.9108 19.0893C12.7545 18.933 12.6667 18.721 12.6667 18.5C12.6667 18.279 12.7545 18.067 12.9108 17.9108C13.067 17.7545 13.279 17.6667 13.5 17.6667H15.1667V16.8334H14.3334C13.7808 16.8334 13.2509 16.6139 12.8602 16.2232C12.4695 15.8325 12.25 15.3026 12.25 14.75C12.25 14.1975 12.4695 13.6676 12.8602 13.2769C13.2509 12.8862 13.7808 12.6667 14.3334 12.6667H15.1667V11.8334C15.1667 11.6123 15.2545 11.4004 15.4108 11.2441C15.567 11.0878 15.779 11 16 11ZM17.6667 16.8334H16.8334V17.6667H17.6667C17.7772 17.6667 17.8832 17.6228 17.9613 17.5447C18.0395 17.4665 18.0834 17.3605 18.0834 17.25C18.0834 17.1395 18.0395 17.0335 17.9613 16.9554C17.8832 16.8773 17.7772 16.8334 17.6667 16.8334ZM15.1667 14.3334H14.3334C14.2228 14.3334 14.1169 14.3773 14.0387 14.4554C13.9606 14.5335 13.9167 14.6395 13.9167 14.75C13.9167 14.8605 13.9606 14.9665 14.0387 15.0447C14.1169 15.1228 14.2228 15.1667 14.3334 15.1667H15.1667V14.3334Z" fill="#525151"/>
</g>
<defs>
<clipPath id="clip0_1048_7912">
<rect width="20" height="20" fill="white" transform="translate(6 6)"/>
</clipPath>
</defs>
</svg>
