<svg width="32" height="32" viewBox="0 0 32 32" fill="none" xmlns="http://www.w3.org/2000/svg">
<circle cx="16" cy="16" r="16" fill="#3A3737" fill-opacity="0.3"/>
<g clip-path="url(#clip0_1048_7939)">
<path d="M19.8533 17.5998L22.1183 19.8631L15.9908 25.9906L9.86333 19.8639L12.1275 17.5998L15.9908 21.4831L19.8533 17.5998ZM23.7175 13.7364L26 15.9998L23.7375 18.2631L21.4733 15.9998L23.7175 13.7364ZM15.9908 13.7364L18.2542 15.9798L15.99 18.2439L13.7267 15.9998L15.9908 13.7364ZM8.26333 13.7364L10.5083 15.9998L8.265 18.2431L6 15.9998L8.26333 13.7364ZM15.9917 6.00977L22.1167 12.1164L19.8525 14.3789L15.9917 10.5164L12.1283 14.3998L9.86417 12.1364L15.9917 6.00977Z" fill="white" fill-opacity="0.2"/>
</g>
<defs>
<clipPath id="clip0_1048_7939">
<rect width="20" height="20" fill="white" transform="translate(6 6)"/>
</clipPath>
</defs>
</svg>
