<svg width="32" height="32" viewBox="0 0 32 32" fill="none" xmlns="http://www.w3.org/2000/svg">
<g clip-path="url(#clip0_1048_7921)">
<path d="M17 32C25.8366 32 33 24.8366 33 16C33 7.16344 25.8366 0 17 0C8.16344 0 1 7.16344 1 16C1 24.8366 8.16344 32 17 32Z" fill="#3D3A3A" fill-opacity="0.3"/>
<path fill-rule="evenodd" clip-rule="evenodd" d="M18.922 17.3828V17.3808C18.812 17.3888 18.245 17.4228 16.98 17.4228C15.97 17.4228 15.259 17.3928 15.009 17.3808V17.3838C11.121 17.2128 8.219 16.5358 8.219 15.7258C8.219 14.9168 11.121 14.2398 15.009 14.0658V16.7098C15.263 16.7278 15.991 16.7708 16.997 16.7708C18.204 16.7708 18.809 16.7208 18.922 16.7108V14.0678C22.802 14.2408 25.697 14.9178 25.697 15.7258C25.697 16.5358 22.802 17.2108 18.922 17.3828ZM18.922 13.7928V11.4268H24.336V7.81885H9.595V11.4268H15.009V13.7918C10.609 13.9938 7.3 14.8658 7.3 15.9098C7.3 16.9538 10.609 17.8248 15.009 18.0278V25.6098H18.922V18.0258C23.315 17.8238 26.616 16.9528 26.616 15.9098C26.616 14.8668 23.315 13.9958 18.922 13.7928Z" fill="white" fill-opacity="0.2"/>
</g>
<defs>
<clipPath id="clip0_1048_7921">
<rect width="32" height="32" fill="white"/>
</clipPath>
</defs>
</svg>
