<svg width="33" height="33" viewBox="0 0 33 33" fill="none" xmlns="http://www.w3.org/2000/svg">
<g clip-path="url(#clip0_1048_7918)">
<path d="M32.5064 20.4901C30.3018 29.3341 21.3414 34.7103 12.5101 32.5056C3.66582 30.3011 -1.71035 21.3411 0.494338 12.5098C2.69889 3.66582 11.6463 -1.71035 20.4905 0.494339C29.3219 2.686 34.7111 11.646 32.5064 20.4901Z" fill="#3D3A3A" fill-opacity="0.3"/>
<path d="M24.3562 14.444C24.6784 12.2526 23.0155 11.0667 20.721 10.2804L21.4687 7.30264L19.664 6.85146L18.9421 9.75186C18.4651 9.63584 17.9753 9.51982 17.4855 9.4167L18.2073 6.50342L16.4026 6.05225L15.6679 9.01709C15.2683 8.92686 14.8816 8.83662 14.5077 8.74639V8.7335L12.0069 8.11475L11.53 10.0483C11.53 10.0483 12.8706 10.3577 12.8448 10.3706C13.5796 10.5511 13.7085 11.0409 13.6827 11.4276L12.8319 14.8179C12.8835 14.8308 12.948 14.8437 13.0253 14.8823C12.9609 14.8694 12.8964 14.8565 12.8319 14.8308L11.646 19.5745C11.5558 19.7937 11.3237 20.1288 10.821 19.9999C10.8339 20.0257 9.50616 19.6776 9.50616 19.6776L8.60382 21.753L10.9628 22.346C11.4011 22.462 11.8265 22.5651 12.2519 22.6812L11.5042 25.6847L13.3089 26.1358L14.0566 23.1581C14.5464 23.287 15.0362 23.4159 15.5003 23.5319L14.7655 26.4968L16.5702 26.948L17.3179 23.9444C20.4116 24.5245 22.7319 24.2925 23.6987 21.4952C24.4851 19.2522 23.6601 17.9503 22.0359 17.0995C23.2347 16.8288 24.1241 16.0425 24.3562 14.444ZM20.2183 20.2448C19.664 22.4878 15.8741 21.2761 14.6495 20.9667L15.6421 16.9835C16.8667 17.2929 20.8112 17.8987 20.2183 20.2448ZM20.7855 14.4054C20.2698 16.455 17.1245 15.4108 16.1062 15.153L17.0085 11.5437C18.0269 11.8015 21.314 12.2784 20.7855 14.4054Z" fill="white" fill-opacity="0.2"/>
</g>
<defs>
<clipPath id="clip0_1048_7918">
<rect width="33" height="33" fill="white"/>
</clipPath>
</defs>
</svg>
