<svg width="56" height="56" viewBox="0 0 56 56" fill="none" xmlns="http://www.w3.org/2000/svg">
<circle cx="28" cy="28" r="28" fill="#FEE801"/>
<g clip-path="url(#clip0_1023_8101)">
<path d="M42.2949 23.9397L42.4213 24.0443L45.7383 27.3613C45.8878 27.5106 45.9801 27.7077 45.9992 27.9181C46.0184 28.1285 45.9631 28.3389 45.8429 28.5127L45.7383 28.6391L28.6371 45.7385C28.4879 45.8875 28.2912 45.9796 28.0812 45.9987C27.8712 46.0178 27.6611 45.9628 27.4875 45.8431L27.3611 45.7385L24.0441 42.4197C23.8951 42.2705 23.803 42.0738 23.7839 41.8638C23.7648 41.6538 23.8198 41.4437 23.9395 41.2701L24.0441 41.1437L41.1435 24.0443C41.2738 23.914 41.4408 23.8268 41.6221 23.7942C41.8034 23.7616 41.9903 23.7853 42.1578 23.8621L42.2949 23.9397ZM35.5274 17.154L38.848 20.471C39.0171 20.6403 39.1122 20.8697 39.1122 21.109C39.1122 21.3483 39.0171 21.5777 38.848 21.747L21.7468 38.8482C21.5775 39.0173 21.3481 39.1124 21.1088 39.1124C20.8695 39.1124 20.6401 39.0173 20.4708 38.8482L17.152 35.5294C16.9829 35.3601 16.8878 35.1307 16.8878 34.8914C16.8878 34.6521 16.9829 34.4227 17.152 34.2534L34.2532 17.154C34.4225 16.9849 34.6519 16.8898 34.8912 16.8898C35.1305 16.8898 35.3599 16.9849 35.5292 17.154H35.5274ZM13.5806 24.0443C13.7297 23.8953 13.9264 23.8032 14.1364 23.7841C14.3464 23.765 14.5565 23.82 14.7301 23.9397L14.8565 24.0443L18.1735 27.3613C18.323 27.5106 18.4153 27.7077 18.4344 27.9181C18.4536 28.1285 18.3983 28.3389 18.2782 28.5127L18.1735 28.6391L14.8565 31.9561C14.7072 32.1056 14.5101 32.1979 14.2997 32.217C14.0893 32.2362 13.8789 32.1809 13.7051 32.0607L13.5787 31.9561L10.2617 28.6391C10.1123 28.4898 10.0199 28.2927 10.0008 28.0823C9.98165 27.8719 10.037 27.6615 10.1571 27.4877L10.2617 27.3613L13.5806 24.0443ZM28.5125 10.1573L28.6389 10.2619L31.9559 13.5807C32.1054 13.7301 32.1977 13.9271 32.2168 14.1375C32.236 14.3479 32.1807 14.5583 32.0606 14.7321L31.9559 14.8567L21.7468 25.0658C21.5975 25.2153 21.4004 25.3076 21.19 25.3267C20.9796 25.3459 20.7692 25.2906 20.5954 25.1705L20.4708 25.0658L17.152 21.747C17.0028 21.5974 16.9108 21.4003 16.892 21.1899C16.8732 20.9795 16.9288 20.7692 17.0492 20.5956L17.152 20.471L27.3611 10.2619C27.4916 10.132 27.6587 10.045 27.84 10.0127C28.0213 9.98047 28.2081 10.0045 28.3754 10.0815L28.5125 10.1573Z" fill="black"/>
</g>
<defs>
<clipPath id="clip0_1023_8101">
<rect width="43.3125" height="43.3125" fill="white" transform="translate(6.34375 6.34375)"/>
</clipPath>
</defs>
</svg>
