<svg width="56" height="56" viewBox="0 0 56 56" fill="none" xmlns="http://www.w3.org/2000/svg">
<g clip-path="url(#clip0_1023_8032)">
<path d="M28 56C43.464 56 56 43.464 56 28C56 12.536 43.464 0 28 0C12.536 0 0 12.536 0 28C0 43.464 12.536 56 28 56Z" fill="#8DC351"/>
<path d="M37.1125 18.4345C35.7545 14.9835 32.349 14.672 28.3835 15.442L26.9712 10.5193L23.9752 11.3785L25.3507 16.1735C24.5632 16.3975 23.7617 16.646 22.9655 16.891L21.583 12.0645L18.5887 12.922L19.9975 17.8448C19.3535 18.0443 18.72 18.2403 18.0987 18.4188L18.0935 18.4013L13.96 19.586L14.8787 22.7885C14.8787 22.7885 17.0802 22.1095 17.054 22.162C18.2685 21.8138 18.8652 22.4053 19.154 22.981L20.764 28.588C20.8462 28.5653 20.9565 28.5373 21.086 28.518L20.7692 28.609L23.0215 36.4665C23.0775 36.8638 23.0285 37.5375 22.1815 37.7825C22.2287 37.8053 20.001 38.4055 20.001 38.4055L20.4332 42.1558L24.3322 41.0358C25.0585 40.831 25.776 40.6385 26.4777 40.4408L27.9075 45.4195L30.9 44.562L29.4877 39.6358C30.2904 39.4228 31.0908 39.2011 31.8887 38.9708L33.2922 43.876L36.29 43.0168L34.8655 38.0468C39.8197 36.3125 42.982 34.0323 42.0632 29.1743C41.3247 25.2648 39.0462 24.0783 35.989 24.2113C37.473 22.8288 38.1117 20.958 37.1125 18.4345ZM35.975 30.282C37.0425 34.0043 30.55 35.4078 28.52 35.9923L26.6282 29.3948C28.6582 28.812 34.8602 26.4023 35.9732 30.2838L35.975 30.282ZM31.9115 21.3745C32.881 24.7608 27.4542 25.8895 25.762 26.3743L24.047 20.391C25.7375 19.9063 30.8982 17.8448 31.9115 21.3763V21.3745Z" fill="white"/>
</g>
<defs>
<clipPath id="clip0_1023_8032">
<rect width="56" height="56" fill="white"/>
</clipPath>
</defs>
</svg>
