<svg width="56" height="56" viewBox="0 0 56 56" fill="none" xmlns="http://www.w3.org/2000/svg">
<g clip-path="url(#clip0_1023_8009)">
<path d="M55.1624 34.7712C51.4213 49.7792 36.2158 58.9023 21.2292 55.1611C6.22078 51.42 -2.90241 36.2151 0.838876 21.2288C4.57994 6.22078 19.7634 -2.9024 34.7718 0.838878C49.7584 4.55807 58.9037 19.7629 55.1624 34.7712Z" fill="url(#paint0_linear_1023_8009)"/>
<path d="M41.3318 24.5109C41.8787 20.7921 39.0568 18.7796 35.1631 17.4453L36.4318 12.3921L33.3693 11.6265L32.1443 16.5484C31.335 16.3515 30.5037 16.1546 29.6725 15.9796L30.8975 11.0359L27.835 10.2703L26.5881 15.3015C25.91 15.1484 25.2537 14.9953 24.6193 14.8421V14.8203L20.3756 13.7703L19.5662 17.0515C19.5662 17.0515 21.8412 17.5765 21.7975 17.5984C23.0443 17.9046 23.2631 18.7359 23.2193 19.3921L21.7756 25.1453C21.8631 25.1671 21.9725 25.189 22.1037 25.2546C21.9943 25.2328 21.885 25.2109 21.7756 25.1671L19.7631 33.2171C19.61 33.589 19.2162 34.1578 18.3631 33.939C18.385 33.9828 16.1318 33.3921 16.1318 33.3921L14.6006 36.914L18.6037 37.9203C19.3475 38.1171 20.0693 38.2921 20.7912 38.489L19.5225 43.5859L22.585 44.3515L23.8537 39.2984C24.685 39.5171 25.5162 39.7359 26.3037 39.9328L25.0568 44.964L28.1193 45.7296L29.3881 40.6328C34.6381 41.6171 38.5756 41.2234 40.2162 36.4765C41.5506 32.6703 40.1506 30.4609 37.3943 29.0171C39.4287 28.5578 40.9381 27.2234 41.3318 24.5109ZM34.31 34.3546C33.3693 38.1609 26.9381 36.1046 24.86 35.5796L26.5443 28.8203C28.6225 29.3453 35.3162 30.3734 34.31 34.3546ZM35.2725 24.4453C34.3975 27.9234 29.06 26.1515 27.3318 25.714L28.8631 19.589C30.5912 20.0265 36.1693 20.8359 35.2725 24.4453Z" fill="white"/>
</g>
<defs>
<linearGradient id="paint0_linear_1023_8009" x1="2798.49" y1="-1.344" x2="2798.49" y2="5599.43" gradientUnits="userSpaceOnUse">
<stop stop-color="#F9AA4B"/>
<stop offset="1" stop-color="#F7931A"/>
</linearGradient>
<clipPath id="clip0_1023_8009">
<rect width="56" height="56" fill="white"/>
</clipPath>
</defs>
</svg>
