<svg width="50" height="50" viewBox="0 0 50 50" fill="none" xmlns="http://www.w3.org/2000/svg">
<g filter="url(#filter0_iiii_876_9045)">
<circle cx="25" cy="25" r="25" fill="#D9D9D9" fill-opacity="0.1"/>
</g>
<path d="M21.4998 29.865L17.4515 25.8167C17.2334 25.5985 16.9375 25.476 16.629 25.476C16.3205 25.476 16.0247 25.5985 15.8065 25.8167C15.5884 26.0348 15.4658 26.3307 15.4658 26.6392C15.4658 26.7919 15.4959 26.9432 15.5544 27.0843C15.6128 27.2254 15.6985 27.3537 15.8065 27.4617L20.6832 32.3383C21.1382 32.7933 21.8732 32.7933 22.3282 32.3383L34.6715 19.995C34.8897 19.7769 35.0122 19.481 35.0122 19.1725C35.0122 18.864 34.8897 18.5681 34.6715 18.35C34.4534 18.1319 34.1575 18.0093 33.849 18.0093C33.5405 18.0093 33.2447 18.1319 33.0265 18.35L21.4998 29.865Z" fill="white"/>
<defs>
<filter id="filter0_iiii_876_9045" x="-2" y="-2" width="54" height="54" filterUnits="userSpaceOnUse" color-interpolation-filters="sRGB">
<feFlood flood-opacity="0" result="BackgroundImageFix"/>
<feBlend mode="normal" in="SourceGraphic" in2="BackgroundImageFix" result="shape"/>
<feColorMatrix in="SourceAlpha" type="matrix" values="0 0 0 0 0 0 0 0 0 0 0 0 0 0 0 0 0 0 127 0" result="hardAlpha"/>
<feOffset dy="2"/>
<feGaussianBlur stdDeviation="3"/>
<feComposite in2="hardAlpha" operator="arithmetic" k2="-1" k3="1"/>
<feColorMatrix type="matrix" values="0 0 0 0 0.509804 0 0 0 0 1 0 0 0 0 0.764706 0 0 0 0.3 0"/>
<feBlend mode="normal" in2="shape" result="effect1_innerShadow_876_9045"/>
<feColorMatrix in="SourceAlpha" type="matrix" values="0 0 0 0 0 0 0 0 0 0 0 0 0 0 0 0 0 0 127 0" result="hardAlpha"/>
<feOffset dx="2"/>
<feGaussianBlur stdDeviation="3"/>
<feComposite in2="hardAlpha" operator="arithmetic" k2="-1" k3="1"/>
<feColorMatrix type="matrix" values="0 0 0 0 0.509804 0 0 0 0 1 0 0 0 0 0.764706 0 0 0 0.3 0"/>
<feBlend mode="normal" in2="effect1_innerShadow_876_9045" result="effect2_innerShadow_876_9045"/>
<feColorMatrix in="SourceAlpha" type="matrix" values="0 0 0 0 0 0 0 0 0 0 0 0 0 0 0 0 0 0 127 0" result="hardAlpha"/>
<feOffset dx="-2"/>
<feGaussianBlur stdDeviation="3"/>
<feComposite in2="hardAlpha" operator="arithmetic" k2="-1" k3="1"/>
<feColorMatrix type="matrix" values="0 0 0 0 0.509804 0 0 0 0 1 0 0 0 0 0.764706 0 0 0 0.3 0"/>
<feBlend mode="normal" in2="effect2_innerShadow_876_9045" result="effect3_innerShadow_876_9045"/>
<feColorMatrix in="SourceAlpha" type="matrix" values="0 0 0 0 0 0 0 0 0 0 0 0 0 0 0 0 0 0 127 0" result="hardAlpha"/>
<feOffset dy="-2"/>
<feGaussianBlur stdDeviation="3"/>
<feComposite in2="hardAlpha" operator="arithmetic" k2="-1" k3="1"/>
<feColorMatrix type="matrix" values="0 0 0 0 0.509804 0 0 0 0 1 0 0 0 0 0.764706 0 0 0 0.3 0"/>
<feBlend mode="normal" in2="effect3_innerShadow_876_9045" result="effect4_innerShadow_876_9045"/>
</filter>
</defs>
</svg>
