<svg width="50" height="50" viewBox="0 0 50 50" fill="none" xmlns="http://www.w3.org/2000/svg">
<g filter="url(#filter0_iiii_916_7461)">
<circle cx="25" cy="25" r="25" fill="#606060" fill-opacity="0.3"/>
</g>
<path d="M21.4998 29.8655L17.4515 25.8171C17.2334 25.599 16.9375 25.4764 16.629 25.4764C16.3205 25.4764 16.0247 25.599 15.8065 25.8171C15.5884 26.0353 15.4658 26.3311 15.4658 26.6396C15.4658 26.7924 15.4959 26.9436 15.5544 27.0848C15.6128 27.2259 15.6985 27.3541 15.8065 27.4621L20.6832 32.3388C21.1382 32.7938 21.8732 32.7938 22.3282 32.3388L34.6715 19.9955C34.8897 19.7773 35.0122 19.4815 35.0122 19.173C35.0122 18.8645 34.8897 18.5686 34.6715 18.3505C34.4534 18.1323 34.1575 18.0098 33.849 18.0098C33.5405 18.0098 33.2447 18.1323 33.0265 18.3505L21.4998 29.8655Z" fill="black"/>
<defs>
<filter id="filter0_iiii_916_7461" x="-2" y="-2" width="54" height="54" filterUnits="userSpaceOnUse" color-interpolation-filters="sRGB">
<feFlood flood-opacity="0" result="BackgroundImageFix"/>
<feBlend mode="normal" in="SourceGraphic" in2="BackgroundImageFix" result="shape"/>
<feColorMatrix in="SourceAlpha" type="matrix" values="0 0 0 0 0 0 0 0 0 0 0 0 0 0 0 0 0 0 127 0" result="hardAlpha"/>
<feOffset dy="2"/>
<feGaussianBlur stdDeviation="3"/>
<feComposite in2="hardAlpha" operator="arithmetic" k2="-1" k3="1"/>
<feColorMatrix type="matrix" values="0 0 0 0 0.509804 0 0 0 0 1 0 0 0 0 0.764706 0 0 0 0.3 0"/>
<feBlend mode="normal" in2="shape" result="effect1_innerShadow_916_7461"/>
<feColorMatrix in="SourceAlpha" type="matrix" values="0 0 0 0 0 0 0 0 0 0 0 0 0 0 0 0 0 0 127 0" result="hardAlpha"/>
<feOffset dx="2"/>
<feGaussianBlur stdDeviation="3"/>
<feComposite in2="hardAlpha" operator="arithmetic" k2="-1" k3="1"/>
<feColorMatrix type="matrix" values="0 0 0 0 0.509804 0 0 0 0 1 0 0 0 0 0.764706 0 0 0 0.3 0"/>
<feBlend mode="normal" in2="effect1_innerShadow_916_7461" result="effect2_innerShadow_916_7461"/>
<feColorMatrix in="SourceAlpha" type="matrix" values="0 0 0 0 0 0 0 0 0 0 0 0 0 0 0 0 0 0 127 0" result="hardAlpha"/>
<feOffset dx="-2"/>
<feGaussianBlur stdDeviation="3"/>
<feComposite in2="hardAlpha" operator="arithmetic" k2="-1" k3="1"/>
<feColorMatrix type="matrix" values="0 0 0 0 0.509804 0 0 0 0 1 0 0 0 0 0.764706 0 0 0 0.3 0"/>
<feBlend mode="normal" in2="effect2_innerShadow_916_7461" result="effect3_innerShadow_916_7461"/>
<feColorMatrix in="SourceAlpha" type="matrix" values="0 0 0 0 0 0 0 0 0 0 0 0 0 0 0 0 0 0 127 0" result="hardAlpha"/>
<feOffset dy="-2"/>
<feGaussianBlur stdDeviation="3"/>
<feComposite in2="hardAlpha" operator="arithmetic" k2="-1" k3="1"/>
<feColorMatrix type="matrix" values="0 0 0 0 0.509804 0 0 0 0 1 0 0 0 0 0.764706 0 0 0 0.3 0"/>
<feBlend mode="normal" in2="effect3_innerShadow_916_7461" result="effect4_innerShadow_916_7461"/>
</filter>
</defs>
</svg>
