<svg width="56" height="56" viewBox="0 0 56 56" fill="none" xmlns="http://www.w3.org/2000/svg">
<g clip-path="url(#clip0_1023_8014)">
<path d="M28.672 18.452H24.6703V26.3387H30.9633V29.6403H24.6703V37.527H28.868C29.946 37.527 37.7207 37.6483 37.709 28.35C37.6973 19.0517 30.1677 18.452 28.672 18.452ZM28 0C12.537 0 0 12.537 0 28C0 43.463 12.537 56 28 56C43.463 56 56 43.463 56 28C56 12.537 43.463 0 28 0ZM29.1013 43.1223H18.9607V29.6403H15.386V26.3387H18.9607V12.859H27.664C29.722 12.859 43.3603 12.432 43.3603 28.245C43.358 44.317 29.1013 43.1223 29.1013 43.1223Z" fill="#BA9F33"/>
</g>
<defs>
<clipPath id="clip0_1023_8014">
<rect width="56" height="56" fill="white"/>
</clipPath>
</defs>
</svg>
