<svg width="56" height="56" viewBox="0 0 56 56" fill="none" xmlns="http://www.w3.org/2000/svg">
<g clip-path="url(#clip0_1023_8040)">
<path d="M28 56C43.464 56 56 43.464 56 28C56 12.536 43.464 0 28 0C12.536 0 0 12.536 0 28C0 43.464 12.536 56 28 56Z" fill="#00DCFA"/>
<path d="M33.9115 8.75C27.139 8.75 21.3867 13.958 20.664 20.6623C13.9562 21.3868 8.75 27.139 8.75 33.9098C8.75185 37.4469 10.1577 40.8387 12.6587 43.3401C15.1597 45.8414 18.5513 47.2477 22.0885 47.25C28.861 47.25 34.636 42.042 35.336 35.3378C42.042 34.6133 47.25 28.861 47.25 22.0903C47.2481 18.5531 45.8423 15.1613 43.3413 12.6599C40.8403 10.1586 37.4487 8.75232 33.9115 8.75ZM44.1245 23.583C43.7915 25.7706 42.7679 27.7945 41.2032 29.3592C39.6385 30.9239 37.6146 31.9475 35.427 32.2805V23.583H44.1245ZM11.8755 32.417C12.2041 30.2253 13.2257 28.1963 14.7907 26.6271C16.3558 25.0579 18.3821 24.031 20.573 23.6968V32.3942H11.8755V32.417ZM32.3032 35.427C31.9419 37.8773 30.7111 40.1158 28.8356 41.7336C26.9602 43.3513 24.5653 44.2404 22.0885 44.2383C19.6122 44.2404 17.2177 43.3515 15.3426 41.7341C13.4675 40.1167 12.2368 37.8786 11.8755 35.4288H32.3032V35.427ZM32.417 23.583V32.3942H23.583V23.583H32.417ZM44.1245 20.573H23.6968C24.0581 18.1227 25.2889 15.8842 27.1644 14.2664C29.0398 12.6487 31.4347 11.7596 33.9115 11.7618C36.3878 11.7596 38.7823 12.6485 40.6574 14.2659C42.5325 15.8833 43.7632 18.1232 44.1245 20.573Z" fill="white"/>
</g>
<defs>
<clipPath id="clip0_1023_8040">
<rect width="56" height="56" fill="white"/>
</clipPath>
</defs>
</svg>
