<svg width="56" height="56" viewBox="0 0 56 56" fill="none" xmlns="http://www.w3.org/2000/svg">
<g clip-path="url(#clip0_1023_8019)">
<path d="M28 0C22.4621 0 17.0486 1.64217 12.444 4.71885C7.83947 7.79553 4.25064 12.1685 2.13139 17.2849C0.012132 22.4012 -0.542361 28.0311 0.538025 33.4625C1.61841 38.894 4.28515 43.8831 8.20102 47.799C12.1169 51.7149 17.106 54.3816 22.5375 55.462C27.969 56.5424 33.5988 55.9879 38.7152 53.8686C43.8315 51.7494 48.2045 48.1605 51.2812 43.556C54.3578 38.9514 56 33.5379 56 28C56 20.5739 53.05 13.452 47.799 8.20101C42.548 2.94999 35.4261 0 28 0ZM27.3887 8.582H33.418C33.5414 8.58216 33.663 8.61081 33.7734 8.66574C33.8838 8.72066 33.9801 8.80036 34.0546 8.89862C34.1292 8.99688 34.18 9.11104 34.2031 9.23219C34.2263 9.35333 34.2211 9.47818 34.188 9.597L29.4513 25.739L33.8964 24.381L32.9444 27.6127L28.455 28.9193L25.543 38.752H41.1203C41.2438 38.7527 41.3654 38.7819 41.4757 38.8374C41.586 38.8929 41.682 38.9731 41.7561 39.0719C41.8302 39.1706 41.8805 39.2852 41.9029 39.4066C41.9254 39.528 41.9195 39.6529 41.8857 39.7717L40.5277 44.4383C40.4623 44.6601 40.3271 44.8549 40.1421 44.9937C39.9571 45.1324 39.7323 45.2077 39.501 45.2083H15.7103L19.7307 31.6237L15.2833 32.977L16.2633 29.8013L20.72 28.448L26.3713 9.36133C26.4333 9.13815 26.5664 8.94128 26.7505 8.80062C26.9345 8.65997 27.1594 8.58321 27.391 8.582" fill="#B9BFC8"/>
</g>
<defs>
<clipPath id="clip0_1023_8019">
<rect width="56" height="56" fill="white"/>
</clipPath>
</defs>
</svg>
