<svg width="56" height="56" viewBox="0 0 56 56" fill="none" xmlns="http://www.w3.org/2000/svg">
<circle cx="28" cy="28" r="28" fill="white"/>
<circle cx="28" cy="28" r="28" fill="#8247E5"/>
<path d="M35.002 22.8384L41.849 26.7456C42.0276 26.8461 42.1762 26.9924 42.2796 27.1693C42.383 27.3463 42.4375 27.5476 42.4373 27.7526V35.5669C42.4368 35.7712 42.3821 35.9718 42.2787 36.148C42.1754 36.3243 42.0271 36.47 41.849 36.5703L35.002 40.4774C34.8231 40.5786 34.6211 40.6318 34.4155 40.6318C34.21 40.6318 34.0079 40.5786 33.829 40.4774L26.9748 36.5721C26.7968 36.4714 26.6487 36.3253 26.5457 36.1487C26.4426 35.9721 26.3883 35.7713 26.3883 35.5669V21.604L21.5842 18.8663L16.7819 21.604V27.083L21.5842 29.8207L24.7514 28.0142V31.685L22.1707 33.1576C21.9918 33.2588 21.7897 33.312 21.5842 33.312C21.3786 33.312 21.1766 33.2588 20.9977 33.1576L14.1471 29.2505C13.9691 29.1498 13.821 29.0037 13.7179 28.8271C13.6149 28.6505 13.5606 28.4497 13.5605 28.2452V20.4309C13.5605 20.0177 13.7843 19.6333 14.1471 19.4257L20.9977 15.5186C21.3586 15.3129 21.8098 15.3129 22.1707 15.5186L29.0213 19.4257C29.1993 19.5264 29.3474 19.6725 29.4504 19.8491C29.5535 20.0257 29.6078 20.2265 29.6078 20.4309V34.3974L29.6945 34.4443L34.4101 37.1333L39.2124 34.3974V28.9184L34.4101 26.1807L31.2465 27.9836V24.3074L33.8218 22.8384C34.0009 22.7369 34.2033 22.6835 34.4092 22.6835C34.6151 22.6835 34.8175 22.7369 34.9966 22.8384H35.002Z" fill="white"/>
</svg>
