<svg width="56" height="56" viewBox="0 0 56 56" fill="none" xmlns="http://www.w3.org/2000/svg">
<circle cx="28" cy="28" r="28" fill="#3B6FEF"/>
<path fill-rule="evenodd" clip-rule="evenodd" d="M22.2107 16.8885C22.24 16.6585 22.3519 16.447 22.5255 16.2933C22.6991 16.1396 22.9227 16.0542 23.1545 16.053H31.8472C32.8002 16.1158 33.7308 16.3697 34.5835 16.7998C35.4362 17.2298 36.1937 17.8272 36.8107 18.5561C37.4277 19.2851 37.8916 20.1309 38.1748 21.0429C38.4581 21.955 38.5548 22.9148 38.4592 23.865C38.0333 29.4881 33.6031 31.5219 31.2896 31.5219H28.2579L26.9658 38.4659C26.9281 38.6878 26.8126 38.8891 26.64 39.0336C26.4673 39.1781 26.2489 39.2564 26.0238 39.2545H20.2852C20.0781 39.2545 19.8766 39.1874 19.711 39.063C19.5454 38.9387 19.4245 38.764 19.3667 38.5652C19.3242 38.4336 19.3125 38.2941 19.3324 38.1573L20.7635 27.6546H19.3414C19.2146 27.6551 19.089 27.6304 18.9718 27.5819C18.8546 27.5333 18.7483 27.462 18.659 27.372C18.5696 27.282 18.4991 27.1751 18.4514 27.0576C18.4038 26.94 18.38 26.8142 18.3814 26.6874C18.3814 26.1532 18.8073 25.7201 19.3414 25.7201H21.0269L21.5448 21.8547H19.3414C19.2146 21.8552 19.089 21.8305 18.9718 21.7819C18.8546 21.7334 18.7483 21.6621 18.659 21.5721C18.5696 21.482 18.4991 21.3752 18.4514 21.2576C18.4038 21.1401 18.38 21.0143 18.3814 20.8875C18.38 20.7614 18.4035 20.6363 18.4506 20.5194C18.4977 20.4024 18.5674 20.296 18.6558 20.2061C18.7442 20.1162 18.8494 20.0446 18.9656 19.9956C19.0817 19.9465 19.2064 19.9209 19.3324 19.9202H21.8011L22.2107 16.8885ZM23.4703 21.8547L22.9452 25.7201H29.8513C30.1067 25.7285 30.3611 25.6842 30.5986 25.5898C30.8361 25.4955 31.0516 25.3532 31.2316 25.1718C31.4117 24.9904 31.5523 24.7739 31.6449 24.5357C31.7375 24.2975 31.7799 24.0428 31.7696 23.7874C31.7799 23.5321 31.7375 23.2774 31.6449 23.0392C31.5523 22.801 31.4117 22.5844 31.2316 22.4031C31.0516 22.2217 30.8361 22.0794 30.5986 21.985C30.3611 21.8907 30.1067 21.8463 29.8513 21.8547H23.4703ZM22.6889 27.6546H29.8513C30.3588 27.6598 30.8621 27.563 31.3314 27.37C31.8007 27.177 32.2265 26.8917 32.5835 26.531C32.9405 26.1703 33.2214 25.7416 33.4095 25.2704C33.5977 24.7991 33.6893 24.2948 33.6789 23.7874C33.6789 21.6219 32.0241 19.9202 29.8513 19.9202H23.7338L23.9883 17.9875H31.7227C32.421 18.031 33.1032 18.2156 33.7282 18.53C34.3532 18.8445 34.908 19.2823 35.3591 19.8171C35.8103 20.3519 36.1484 20.9725 36.353 21.6416C36.5577 22.3106 36.6247 23.0142 36.55 23.7098C36.2161 28.1419 32.7964 29.5874 31.2896 29.5874H27.4621C27.2377 29.5889 27.0209 29.6685 26.8487 29.8123C26.6765 29.9562 26.5597 30.1554 26.5183 30.376L25.2352 37.3218H21.3824L22.6889 27.6546Z" fill="white"/>
</svg>
