<svg width="56" height="57" viewBox="0 0 56 57" fill="none" xmlns="http://www.w3.org/2000/svg">
<circle cx="28" cy="28.5" r="28" fill="#009393"/>
<path d="M14.4648 12.2578H41.5352V18.7005H14.4648V12.2578ZM32.0605 30.5573V44.7693H23.9395V30.5573H32.0605Z" fill="white"/>
<path d="M28.0001 22.4092C18.0924 22.4092 10.0796 24.3853 10.0796 26.7946C10.0796 29.2038 18.1195 31.18 28.0001 31.18C37.8808 31.18 45.9207 29.2038 45.9207 26.7946C45.9207 24.3853 37.8808 22.4092 28.0001 22.4092ZM28.0001 29.1768C18.8504 29.1768 11.4331 27.8232 11.4331 26.1449C11.4331 24.4665 18.8504 23.113 28.0001 23.113C37.1499 23.113 44.5672 24.4665 44.5672 26.1449C44.5672 27.8232 37.1499 29.1768 28.0001 29.1768Z" fill="white"/>
<path d="M28 28.1752C29.4077 28.1752 30.7612 28.1481 32.0605 28.0669V16.9951H23.9395V28.0669C25.2388 28.121 26.5923 28.1752 28 28.1752Z" fill="white"/>
</svg>
