<svg width="56" height="56" viewBox="0 0 56 56" fill="none" xmlns="http://www.w3.org/2000/svg">
<g clip-path="url(#clip0_1023_8050)">
<path d="M28 56C43.464 56 56 43.464 56 28C56 12.536 43.464 0 28 0C12.536 0 0 12.536 0 28C0 43.464 12.536 56 28 56Z" fill="#3E73C4"/>
<path d="M35.0382 31.7169C35.0382 27.9999 32.7982 26.7259 28.3182 26.1939C25.1192 25.7687 24.4805 24.9199 24.4805 23.4324C24.4805 21.9449 25.548 20.9894 27.6795 20.9894C29.5992 20.9894 30.6667 21.6264 31.1987 23.2207C31.2542 23.3749 31.3555 23.5083 31.4891 23.6031C31.6227 23.6979 31.7822 23.7495 31.946 23.7509H33.6522C33.7508 23.7536 33.8488 23.7362 33.9405 23.6998C34.0321 23.6634 34.1153 23.6087 34.1852 23.5392C34.2551 23.4696 34.3101 23.3866 34.3469 23.2952C34.3838 23.2037 34.4017 23.1058 34.3995 23.0072V22.9022C34.191 21.7488 33.6074 20.6965 32.7393 19.9089C31.8713 19.1212 30.7674 18.6423 29.5992 18.5464V15.9984C29.5992 15.5732 29.279 15.2547 28.747 15.1479H27.1457C26.7205 15.1479 26.4002 15.4664 26.2935 15.9984V18.4414C23.0927 18.8649 21.068 20.9894 21.068 23.6459C21.068 27.1494 23.1995 28.5302 27.6795 29.0622C30.6667 29.5924 31.6257 30.2312 31.6257 31.9305C31.6257 33.6279 30.133 34.797 28.1065 34.797C25.3327 34.797 24.3737 33.6297 24.0535 32.0354C23.9485 31.6119 23.6265 31.3984 23.3062 31.3984H21.4932C21.3948 31.3961 21.297 31.4137 21.2055 31.4502C21.1141 31.4867 21.0311 31.5413 20.9614 31.6109C20.8917 31.6804 20.8368 31.7633 20.8001 31.8546C20.7634 31.946 20.7456 32.0438 20.7477 32.1422V32.2472C21.173 34.9037 22.881 36.8147 26.4002 37.3467V39.8965C26.4002 40.32 26.7205 40.6402 27.2525 40.7452H28.8537C29.279 40.7452 29.5992 40.4267 29.706 39.8965V37.3449C32.9067 36.8147 35.0382 34.5834 35.0382 31.7152V31.7169Z" fill="white"/>
<path d="M22.5608 42.8698C14.2413 39.8947 9.97477 30.6547 13.0688 22.477C14.6683 18.0145 18.1875 14.6177 22.5608 13.0235C22.9878 12.8117 23.1995 12.4933 23.1995 11.9613V10.4738C23.1995 10.0503 22.9878 9.73175 22.5608 9.625C22.454 9.625 22.2405 9.625 22.1338 9.73C19.7335 10.4796 17.5052 11.6965 15.5773 13.3108C13.6493 14.9251 12.0596 16.9048 10.8999 19.1359C9.74016 21.3671 9.03322 23.8056 8.81978 26.3111C8.60635 28.8166 8.89063 31.3396 9.65627 33.7348C11.5743 39.6848 16.161 44.2523 22.1338 46.1632C22.5608 46.375 22.9878 46.1632 23.0928 45.738C23.1995 45.633 23.1995 45.5245 23.1995 45.3127V43.8252C23.1995 43.5067 22.881 43.0832 22.5608 42.8698ZM33.8658 9.73175C33.4388 9.51825 33.0118 9.73175 32.9068 10.1552C32.8 10.262 32.8 10.3688 32.8 10.5805V12.068C32.8 12.4932 33.1185 12.9167 33.4388 13.1302C41.7583 16.1052 46.0248 25.3453 42.9308 33.523C41.3313 37.9855 37.812 41.3823 33.4388 42.9765C33.0118 43.1883 32.8 43.5068 32.8 44.0387V45.5262C32.8 45.9497 33.0118 46.2682 33.4388 46.375C33.5455 46.375 33.759 46.375 33.8658 46.27C36.266 45.5204 38.4943 44.3035 40.4223 42.6892C42.3503 41.0749 43.9399 39.0952 45.0996 36.8641C46.2594 34.6329 46.9663 32.1944 47.1798 29.6889C47.3932 27.1834 47.1089 24.6604 46.3433 22.2652C44.4253 16.2102 39.7318 11.6427 33.8658 9.73175Z" fill="white"/>
</g>
<defs>
<clipPath id="clip0_1023_8050">
<rect width="56" height="56" fill="white"/>
</clipPath>
</defs>
</svg>
