<svg width="56" height="56" viewBox="0 0 56 56" fill="none" xmlns="http://www.w3.org/2000/svg">
<g clip-path="url(#clip0_1023_8025)">
<circle cx="28" cy="28" r="28" fill="white"/>
<path d="M28 56C12.5352 56 0 43.4647 0 28C0 12.5352 12.5352 0 28 0C43.4647 0 56 12.5352 56 28C56 43.4647 43.4647 56 28 56ZM40.3725 14L32.368 21.9152C31.2034 23.0648 29.6329 23.7093 27.9965 23.7093C26.3601 23.7093 24.7896 23.0648 23.625 21.9152L15.6275 14H10.5612L21.0963 24.4247C22.9366 26.238 25.4165 27.2544 28 27.2544C30.5835 27.2544 33.0634 26.238 34.9037 24.4247L45.4318 14H40.3725ZM15.5663 42.9852L23.632 35C24.7966 33.8505 26.3671 33.206 28.0035 33.206C29.6399 33.206 31.2104 33.8505 32.375 35L40.4338 42.9852H45.5L34.9037 32.4975C33.0634 30.6843 30.5835 29.6679 28 29.6679C25.4165 29.6679 22.9366 30.6843 21.0963 32.4975L10.5 42.9835L15.5663 42.9852Z" fill="black"/>
</g>
<defs>
<clipPath id="clip0_1023_8025">
<rect width="56" height="56" fill="white"/>
</clipPath>
</defs>
</svg>
